HIERARCHY
ROOT Hips
{
	OFFSET 0.00000 0.00000 0.00000
	CHANNELS 6 Xposition Yposition Zposition Zrotation Yrotation Xrotation 
	JOINT LHipJoint
	{
		OFFSET 0 0 0
		CHANNELS 3 Zrotation Yrotation Xrotation
		JOINT LeftUpLeg
		{
			OFFSET 1.28366 -1.58472 0.87544
			CHANNELS 3 Zrotation Yrotation Xrotation
			JOINT LeftLeg
			{
				OFFSET 2.18587 -6.00562 0.00000
				CHANNELS 3 Zrotation Yrotation Xrotation
				JOINT LeftFoot
				{
					OFFSET 2.39085 -6.56880 0.00000
					CHANNELS 3 Zrotation Yrotation Xrotation
					JOINT LeftToeBase
					{
						OFFSET 0.12003 -0.32979 2.03101
						CHANNELS 3 Zrotation Yrotation Xrotation
						End Site
						{
							OFFSET 0.00000 -0.00000 1.04074
						}
					}
				}
			}
		}
	}
	JOINT RHipJoint
	{
		OFFSET 0 0 0
		CHANNELS 3 Zrotation Yrotation Xrotation
		JOINT RightUpLeg
		{
			OFFSET -1.21795 -1.58472 0.87544
			CHANNELS 3 Zrotation Yrotation Xrotation
			JOINT RightLeg
			{
				OFFSET -2.22714 -6.11902 0.00000
				CHANNELS 3 Zrotation Yrotation Xrotation
				JOINT RightFoot
				{
					OFFSET -2.40306 -6.60235 0.00000
					CHANNELS 3 Zrotation Yrotation Xrotation
					JOINT RightToeBase
					{
						OFFSET -0.15519 -0.42640 1.91430
						CHANNELS 3 Zrotation Yrotation Xrotation
						End Site
						{
							OFFSET -0.00000 -0.00000 0.99082
						}
					}
				}
			}
		}
	}
	JOINT LowerBack
	{
		OFFSET 0 0 0
		CHANNELS 3 Zrotation Yrotation Xrotation
		JOINT Spine
		{
			OFFSET 0.01180 1.76430 -0.06387
			CHANNELS 3 Zrotation Yrotation Xrotation
			JOINT Spine1
			{
				OFFSET -0.00388 1.74651 0.09536
				CHANNELS 3 Zrotation Yrotation Xrotation
				JOINT Neck
				{
					OFFSET 0 0 0
					CHANNELS 3 Zrotation Yrotation Xrotation
					JOINT Neck1
					{
						OFFSET 0.04111 1.46174 0.14397
						CHANNELS 3 Zrotation Yrotation Xrotation
						JOINT Head
						{
							OFFSET 0.00502 1.44580 -0.31711
							CHANNELS 3 Zrotation Yrotation Xrotation
							End Site
							{
								OFFSET -0.00395 1.49251 -0.12327
							}
						}
					}
				}
				JOINT LeftShoulder
				{
					OFFSET 0 0 0
					CHANNELS 3 Zrotation Yrotation Xrotation
					JOINT LeftArm
					{
						OFFSET 2.70917 1.34870 -0.15417
						CHANNELS 3 Zrotation Yrotation Xrotation
						JOINT LeftForeArm
						{
							OFFSET 4.46610 -0.00000 -0.00000
							CHANNELS 3 Zrotation Yrotation Xrotation
							JOINT LeftHand
							{
								OFFSET 3.41414 -0.00000 0.00000
								CHANNELS 3 Zrotation Yrotation Xrotation
								JOINT LeftFingerBase
								{
									OFFSET 0 0 0
									CHANNELS 3 Zrotation Yrotation Xrotation
									JOINT LeftHandIndex1
									{
										OFFSET 0.32830 -0.00000 0.00000
										CHANNELS 3 Zrotation Yrotation Xrotation
										End Site
										{
											OFFSET 0.26468 -0.00000 0.00000
										}
									}
								}
								JOINT LThumb
								{
									OFFSET 0 0 0
									CHANNELS 3 Zrotation Yrotation Xrotation
									End Site
									{
										OFFSET 0.26872 -0.00000 0.26872
									}
								}
							}
						}
					}
				}
				JOINT RightShoulder
				{
					OFFSET 0 0 0
					CHANNELS 3 Zrotation Yrotation Xrotation
					JOINT RightArm
					{
						OFFSET -3.06316 1.13725 -0.10883
						CHANNELS 3 Zrotation Yrotation Xrotation
						JOINT RightForeArm
						{
							OFFSET -4.40431 -0.00000 0.00000
							CHANNELS 3 Zrotation Yrotation Xrotation
							JOINT RightHand
							{
								OFFSET -3.04688 -0.00000 0.00000
								CHANNELS 3 Zrotation Yrotation Xrotation
								JOINT RightFingerBase
								{
									OFFSET 0 0 0
									CHANNELS 3 Zrotation Yrotation Xrotation
									JOINT RightHandIndex1
									{
										OFFSET -0.50049 -0.00000 0.00000
										CHANNELS 3 Zrotation Yrotation Xrotation
										End Site
										{
											OFFSET -0.40351 -0.00000 0.00000
										}
									}
								}
								JOINT RThumb
								{
									OFFSET 0 0 0
									CHANNELS 3 Zrotation Yrotation Xrotation
									End Site
									{
										OFFSET -0.40967 -0.00000 0.40967
									}
								}
							}
						}
					}
				}
			}
		}
	}
}
MOTION
Frames: 11
Frame Time: .0083333
12.7172 15.8456 -7.1808 -170.5320 2.9025 -171.8720 0.0000 0.0000 0.0000 -17.7848 3.9491 -19.1181 2.5736 9.9705 28.8813 0.6302 -0.8655 -14.7267 0.5842 4.8939 13.6063 0.0000 0.0000 0.0000 -5.3473 8.2402 -36.7807 -22.6733 -19.8278 97.8377 0.2993 -13.7434 5.4323 -2.3877 -9.6308 27.7892 -0.8027 -5.1074 5.0561 3.9362 -6.0845 -8.0432 5.5062 -2.4462 -10.9245 -3.4931 -9.8114 -9.1826 7.4532 -13.3238 6.9495 1.9156 -6.2125 4.3115 0.0000 -0.0000 0.0000 -17.4271 -3.0744 16.5707 21.2206 -32.0849 -6.1667 -0.0000 -0.0000 31.5991 64.5131 12.9335 25.1512 -7.1250 0.0000 -0.0000 40.6100 52.9453 9.1438 0.0000 -0.0000 0.0000 -0.7952 -2.8119 -12.7238 -19.7470 30.3364 -5.4030 0.0000 0.0000 28.3162 -63.8372 18.3084 -32.5968 7.1250 -0.0000 -0.0000 -21.2181 4.7760 -24.6000
12.6772 15.9111 -7.1837 -170.6990 2.7702 -171.8900 0.0000 0.0000 0.0000 -18.1134 4.0057 -18.2260 2.2947 9.4546 27.2280 0.5258 -0.7692 -13.4535 0.5637 4.8089 13.3644 0.0000 0.0000 0.0000 -5.8004 8.5196 -39.2212 -24.2843 -19.5541 102.6166 0.3444 -13.5915 4.4540 -2.5251 -9.8834 28.5999 -0.8971 -5.2053 5.2854 3.8093 -6.2496 -8.0659 5.4711 -2.5227 -11.0773 -3.5142 -9.8595 -9.2760 7.3565 -13.3744 6.8786 1.8831 -6.2449 4.3019 -0.0000 -0.0000 0.0000 -17.1310 -2.7715 16.7578 21.3891 -32.2797 -6.2564 -0.0000 -0.0000 31.5757 64.6079 12.9760 25.3167 -7.1250 0.0000 -0.0000 40.8119 53.0519 9.3200 -0.0000 -0.0000 0.0000 -2.1119 -2.4951 -13.1084 -20.4294 31.1562 -5.7519 0.0000 0.0000 27.9169 -64.2413 18.6571 -33.5433 7.1250 -0.0000 -0.0000 -21.3311 5.6551 -25.0538
12.6392 15.9724 -7.1868 -170.8690 2.6604 -171.9000 0.0000 0.0000 0.0000 -18.4321 4.1339 -17.4075 2.0430 8.9550 25.6547 0.4316 -0.7395 -12.1739 0.5435 4.7234 13.1212 0.0000 0.0000 0.0000 -6.2692 8.8004 -41.6797 -25.7930 -19.1756 107.1644 0.3518 -13.0889 3.6326 -2.6253 -10.0623 29.1786 -0.9831 -5.2839 5.4998 3.6678 -6.3890 -8.0932 5.4118 -2.5873 -11.2319 -3.5648 -9.8942 -9.3756 7.2883 -13.4063 6.8221 1.8641 -6.2664 4.3008 -0.0000 0.0000 0.0000 -16.8222 -2.5145 16.9538 21.5582 -32.4741 -6.3470 -0.0000 -0.0000 31.5630 64.6928 13.0259 25.4856 -7.1250 0.0000 -0.0000 41.0097 53.1662 9.5048 -0.0000 0.0000 0.0000 -3.4452 -2.1978 -13.4724 -21.1271 31.9764 -6.1171 0.0000 0.0000 27.4098 -64.6358 19.0309 -34.5214 7.1250 -0.0000 -0.0000 -21.4322 6.5709 -25.4999
12.6032 16.0287 -7.1901 -171.0530 2.5753 -171.9070 0.0000 0.0000 0.0000 -18.7540 4.3315 -16.6577 1.8176 8.4754 24.1675 0.3484 -0.7673 -10.9069 0.5226 4.6332 12.8652 0.0000 0.0000 0.0000 -6.7581 9.0802 -44.1499 -27.1902 -18.7124 111.4662 0.3283 -12.2658 2.9482 -2.6860 -10.1686 29.5243 -1.0700 -5.3479 5.7022 3.5085 -6.5105 -8.1259 5.3311 -2.6435 -11.3896 -3.6229 -9.9112 -9.4600 7.2331 -13.4149 6.7713 1.8527 -6.2760 4.2991 -0.0000 -0.0000 0.0000 -16.4992 -2.2872 17.1625 21.7269 -32.6670 -6.4378 -0.0000 -0.0000 31.5515 64.7753 12.9515 25.4433 -7.1250 0.0000 -0.0000 41.0454 53.0860 9.4273 -0.0000 -0.0000 0.0000 -4.7694 -1.8912 -13.8614 -21.8483 32.8052 -6.5035 0.0000 0.0000 26.8461 -64.9806 19.4045 -35.4452 7.1250 -0.0000 -0.0000 -21.5074 7.4469 -25.8924
12.5683 16.0796 -7.1938 -171.2560 2.5040 -171.9150 0.0000 0.0000 0.0000 -19.0908 4.5887 -15.9746 1.6173 8.0188 22.7712 0.2763 -0.8440 -9.6667 0.4985 4.5266 12.5630 0.0000 0.0000 0.0000 -7.2690 9.3569 -46.6247 -28.4697 -18.1850 115.5079 0.2832 -11.1550 2.3524 -2.7117 -10.2131 29.6695 -1.1558 -5.3960 5.8944 3.3312 -6.6123 -8.1623 5.2273 -2.6906 -11.5501 -3.7003 -9.9182 -9.5294 7.1916 -13.4090 6.7230 1.8499 -6.2784 4.2972 -0.0000 0.0000 0.0000 -16.1751 -2.1060 17.3760 21.8940 -32.8570 -6.5282 -0.0000 -0.0000 31.5493 64.8502 12.8725 25.3850 -7.1250 0.0000 -0.0000 41.0630 52.9952 9.3324 -0.0000 0.0000 0.0000 -6.0857 -1.5713 -14.3079 -22.5891 33.6364 -6.9093 0.0000 0.0000 26.2553 -65.2982 19.7702 -36.3286 7.1250 -0.0000 -0.0000 -21.5709 8.2888 -26.2524
12.5344 16.1248 -7.1980 -171.4880 2.4428 -171.9320 0.0000 0.0000 0.0000 -19.4576 4.9003 -15.3491 1.4401 7.5868 21.4659 0.2150 -0.9603 -8.4705 0.4776 4.4321 12.2955 0.0000 0.0000 0.0000 -7.7982 9.6235 -49.0965 -29.6285 -17.6135 119.2772 0.2272 -9.8302 1.8214 -2.7023 -10.1968 29.6165 -1.2524 -5.4401 6.0802 3.1283 -6.7133 -8.2027 5.1015 -2.7373 -11.7139 -3.7329 -9.9034 -9.5980 7.1156 -13.3778 6.7053 1.8319 -6.2684 4.2978 0.0000 0.0000 0.0000 -15.8337 -1.9329 17.5918 22.0647 -33.0501 -6.6211 -0.0000 -0.0000 31.5488 64.9192 12.7467 25.2405 -7.1250 0.0000 -0.0000 41.0101 52.8274 9.1317 0.0000 0.0000 0.0000 -7.3608 -1.1943 -14.8409 -23.3480 34.4672 -7.3343 0.0000 0.0000 25.6681 -65.5374 20.1022 -37.0703 7.1250 -0.0000 -0.0000 -21.6029 9.0091 -26.5246
12.5011 16.1639 -7.2031 -171.7590 2.3823 -171.9640 0.0000 0.0000 0.0000 -19.8690 5.2660 -14.7730 1.2837 7.1798 20.2492 0.1634 -1.1100 -7.3246 0.4648 4.3732 12.1291 0.0000 0.0000 0.0000 -8.3370 9.8785 -51.5497 -30.6673 -17.0171 122.7664 0.1704 -8.3829 1.3349 -2.6612 -10.1253 29.3834 -1.3699 -5.4801 6.2640 2.9030 -6.8146 -8.2445 4.9631 -2.7832 -11.8793 -3.7460 -9.8696 -9.6582 7.0162 -13.3228 6.7082 1.8062 -6.2473 4.2991 0.0000 0.0000 0.0000 -15.4921 -1.7811 17.8027 22.2351 -33.2417 -6.7143 -0.0000 -0.0000 31.5472 64.9837 12.6137 25.0779 -7.1250 0.0000 -0.0000 40.9413 52.6464 8.9118 0.0000 0.0000 0.0000 -8.5993 -0.7783 -15.4404 -24.1428 35.3149 -7.7889 0.0000 0.0000 25.0531 -65.6926 20.3962 -37.6538 7.1250 -0.0000 -0.0000 -21.6013 9.5939 -26.7033
12.4682 16.1970 -7.2092 -172.0800 2.3160 -172.0220 0.0000 0.0000 0.0000 -20.3387 5.6812 -14.2290 1.1455 6.7963 19.1133 0.1206 -1.2774 -6.2354 0.4495 4.3014 11.9261 0.0000 0.0000 0.0000 -8.8779 10.1329 -53.9646 -31.5878 -16.4142 125.9659 0.1196 -6.9021 0.8820 -2.6000 -10.0175 29.0335 -1.5180 -5.5239 6.4519 2.6474 -6.9296 -8.2834 4.8113 -2.8347 -12.0439 -3.6947 -9.8068 -9.7240 6.8720 -13.2345 6.7433 1.7595 -6.2099 4.3022 0.0000 -0.0000 0.0000 -15.1410 -1.6323 17.9919 22.4070 -33.4340 -6.8087 -0.0000 -0.0000 31.5456 65.0405 12.4671 24.8823 -7.1250 0.0000 -0.0000 40.8433 52.4398 8.6559 0.0000 -0.0000 0.0000 -9.7852 -0.2869 -16.1343 -24.9566 36.1596 -8.2643 0.0000 0.0000 24.4308 -65.7945 20.6600 -38.1270 7.1250 -0.0000 -0.0000 -21.5800 10.0822 -26.8213
12.4355 16.2241 -7.2166 -172.4560 2.2351 -172.1110 0.0000 0.0000 0.0000 -20.8759 6.1431 -13.7052 1.0228 6.4337 18.0481 0.0855 -1.4524 -5.2082 0.4344 4.2292 11.7225 0.0000 0.0000 0.0000 -9.4043 10.3824 -56.3287 -32.3933 -15.8222 128.8668 0.0780 -5.4612 0.4728 -2.5231 -9.8798 28.5885 -1.7036 -5.5638 6.6481 2.3670 -7.0484 -8.3164 4.6545 -2.8859 -12.2061 -3.6243 -9.7281 -9.8043 6.7004 -13.1268 6.8165 1.7020 -6.1629 4.3153 -0.0000 -0.0000 0.0000 -14.8044 -1.5218 18.1596 22.5753 -33.6211 -6.9017 -0.0000 -0.0000 31.5525 65.1017 12.4046 24.8353 -7.1250 0.0000 -0.0000 40.8578 52.3667 8.5791 -0.0000 -0.0000 0.0000 -10.9331 0.2593 -16.9347 -25.7860 36.9966 -8.7586 0.0000 0.0000 23.8052 -65.8609 20.8894 -38.5076 7.1250 -0.0000 -0.0000 -21.5497 10.4844 -26.8981
12.4027 16.2453 -7.2254 -172.8920 2.1322 -172.2390 0.0000 0.0000 0.0000 -21.4860 6.6534 -13.1857 0.9132 6.0889 17.0427 0.0571 -1.6312 -4.2431 0.4262 4.1898 11.6112 0.0000 0.0000 0.0000 -9.8876 10.6504 -58.6174 -33.0889 -15.2566 131.4625 0.0473 -4.1478 0.1170 -2.4367 -9.7219 28.0807 -1.9318 -5.6031 6.8600 2.0600 -7.1772 -8.3392 4.4949 -2.9397 -12.3647 -3.5281 -9.6308 -9.9017 6.5052 -12.9972 6.9274 1.6337 -6.1047 4.3387 -0.0000 0.0000 0.0000 -14.4760 -1.4446 18.2976 22.7330 -33.7956 -6.9892 -0.0000 -0.0000 31.5822 65.1812 12.3732 24.8603 -7.1250 0.0000 -0.0000 40.9411 52.3515 8.5853 -0.0000 0.0000 0.0000 -12.0481 0.8631 -17.8179 -26.6217 37.8161 -9.2663 0.0000 0.0000 23.1363 -65.8859 21.1281 -38.8436 7.1250 -0.0000 -0.0000 -21.4946 10.8596 -26.9297
12.3700 16.2606 -7.2357 -173.3870 1.9995 -172.4100 0.0000 0.0000 0.0000 -22.1689 7.2161 -12.6646 0.8149 5.7604 16.0909 0.0344 -1.8173 -3.3394 0.4197 4.1582 11.5221 0.0000 0.0000 0.0000 -10.2987 10.9690 -60.8063 -33.6789 -14.7325 133.7427 0.0264 -3.0072 -0.1769 -2.3533 -9.5662 27.5831 -2.2034 -5.6357 7.0904 1.7282 -7.3074 -8.3524 4.3338 -2.9912 -12.5227 -3.4344 -9.5256 -10.0055 6.2994 -12.8573 7.0697 1.5624 -6.0415 4.3721 -0.0000 0.0000 0.0000 -14.1710 -1.4296 18.4154 22.8822 -33.9598 -7.0724 -0.0000 -0.0000 31.6110 65.2586 12.3820 24.9532 -7.1250 0.0000 -0.0000 41.0729 52.3993 8.6750 -0.0000 0.0000 0.0000 -13.1549 1.4877 -18.7302 -27.4630 38.6172 -9.7867 0.0000 0.0000 22.3810 -65.9773 21.3683 -39.2659 7.1250 -0.0000 -0.0000 -21.4741 11.2972 -27.0272
